<?xml version="1.0" encoding="UTF-8" standalone="no"?>
<svg
   xmlns:dc="http://purl.org/dc/elements/1.1/"
   xmlns:cc="http://creativecommons.org/ns#"
   xmlns:rdf="http://www.w3.org/1999/02/22-rdf-syntax-ns#"
   xmlns:svg="http://www.w3.org/2000/svg"
   xmlns="http://www.w3.org/2000/svg"
   xmlns:sodipodi="http://sodipodi.sourceforge.net/DTD/sodipodi-0.dtd"
   xmlns:inkscape="http://www.inkscape.org/namespaces/inkscape"
   viewBox="0 0 512 512"
   id="svg2"
   version="1.1"
   inkscape:version="0.91 r13725"
   sodipodi:docname="load.svg">
  <metadata
     id="metadata12">
    <rdf:RDF>
      <cc:Work
         rdf:about="">
        <dc:format>image/svg+xml</dc:format>
        <dc:type
           rdf:resource="http://purl.org/dc/dcmitype/StillImage" />
      </cc:Work>
    </rdf:RDF>
  </metadata>
  <defs
     id="defs10" />
  <sodipodi:namedview
     pagecolor="#ffffff"
     bordercolor="#666666"
     borderopacity="1"
     objecttolerance="10"
     gridtolerance="10"
     guidetolerance="10"
     inkscape:pageopacity="0"
     inkscape:pageshadow="2"
     inkscape:window-width="1440"
     inkscape:window-height="851"
     id="namedview8"
     showgrid="false"
     inkscape:zoom="0.4609375"
     inkscape:cx="256"
     inkscape:cy="256"
     inkscape:window-x="0"
     inkscape:window-y="1"
     inkscape:window-maximized="1"
     inkscape:current-layer="svg2" />
  <path
     d="M0 0h512v512H0z"
     fill="#fff"
     stroke="#fff"
     stroke-width="0"
     id="path4" />
  <path
     d="M64 48c-8.726 0-16 7.274-16 16v384c0 8.726 7.274 16 16 16h236.25l-16-16H64V64h63.375v97.53c0 3.924 3.443 7.095 7.72 7.095h169.81c4.277 0 7.72-3.17 7.72-7.094V64h69.22c.428.318.8.548 1.467 1.094 2.05 1.675 4.962 4.264 8.375 7.406 6.827 6.283 15.65 14.837 24.313 23.5 8.663 8.663 17.217 17.486 23.5 24.313 3.142 3.413 5.73 6.324 7.406 8.374.546.668.776 1.04 1.094 1.47V366h16V128c0-2.68-.657-3.402-1.03-4.156-.375-.754-.725-1.294-1.095-1.844-.74-1.1-1.575-2.19-2.594-3.438-2.036-2.492-4.768-5.55-8.03-9.093-6.524-7.09-15.155-16-23.938-24.782-8.782-8.783-17.692-17.414-24.78-23.938-3.545-3.262-6.6-5.994-9.094-8.03-1.247-1.02-2.337-1.855-3.438-2.595-.55-.37-1.09-.72-1.844-1.094-.754-.373-1.477-1.03-4.156-1.03H64zm87.72 16h48.56c4.277 0 7.72 4.425 7.72 9.938v70.124c0 5.513-3.443 9.938-7.72 9.938h-48.56c-4.277 0-7.72-4.425-7.72-9.938V73.938c0-5.512 3.443-9.937 7.72-9.937zM114 212c-4.432 0-8 3.568-8 8v184c0 4.432 3.568 8 8 8h134.25l-30.625-30.625L202.28 366H279V238h127v-18c0-4.432-3.568-8-8-8H114zm183 44v128h-51.25L352 490.25 458.25 384H407V256H297zm167 147.75l-16 16V448h-28.25l-16 16H448c8.726 0 16-7.274 16-16v-44.25z"
     id="path6"
     fill="#337ab7"
     inkscape:export-xdpi="9.32302"
     inkscape:export-ydpi="9.32302" />
</svg>
